<?xml version="1.0" encoding="UTF-8"?>
<svg id="Layer_1" data-name="Layer 1" xmlns="http://www.w3.org/2000/svg" viewBox="89.00 130.71 902.00 783.34">
  <defs>
    <style>
      .cls-1 {
        fill: #000;
      }
    </style>
  </defs>
  <g>
    <g>
      <path class="cls-1" d="M233.99,705.79v53.28h-40.88c-10.16,0-19.52-2.43-28.06-7.29-8.54-4.86-15.3-11.5-20.27-19.94-4.97-8.43-7.46-17.73-7.46-27.89s2.51-19.55,7.54-28.15c5.03-8.6,11.81-15.41,20.36-20.44,8.54-5.03,17.84-7.54,27.9-7.54,7.82,0,15.22,1.54,22.2,4.61,6.98,3.07,13.09,7.4,18.35,12.98l-2.18,2.51c-10.61-11.17-23.4-16.75-38.37-16.75-7.15,0-13.4,2.07-18.77,6.2-5.59,4.25-9.86,9.75-12.82,16.5-2.96,6.76-4.44,16.78-4.44,30.07,0,9.16.75,16.67,2.26,22.53,1.51,5.86,3.46,10.47,5.86,13.82,2.4,3.35,5.44,6.42,9.13,9.21,5.58,4.13,11.84,6.2,18.77,6.2h21.95v-46.58h-26.14v-3.35h45.07Z"/>
      <path class="cls-1" d="M346.24,759.07h-19.43l-4.86-23.62c-1.68-8.04-4.44-14.41-8.29-19.1-3.85-4.69-8.41-7.15-13.65-7.37h-19.77v50.1h-18.93v-110.24h48.25c7.93,0,14.63,1.48,20.1,4.44,5.47,2.96,9.52,6.76,12.15,11.39,2.62,4.64,3.94,9.36,3.94,14.16,0,6.37-2.21,12.37-6.62,18.01-4.41,5.64-10.86,9.36-19.35,11.14,5.25,1.67,9.72,4.52,13.4,8.54,3.69,4.02,5.92,8.1,6.7,12.23l6.37,30.33ZM280.23,705.62h23.79c3.8,0,7.46-1.17,10.97-3.52,3.52-2.35,6.37-5.58,8.54-9.72,2.18-4.13,3.27-8.71,3.27-13.74s-1.09-9.41-3.27-13.49c-2.18-4.08-5.03-7.26-8.54-9.55-3.52-2.29-7.18-3.43-10.97-3.43h-23.79v53.45Z"/>
      <path class="cls-1" d="M452.8,648.82h3.18v65.17c0,8.04-1.37,15.53-4.1,22.45-2.74,6.93-7.23,12.6-13.49,17.01-6.26,4.41-14.41,6.62-24.46,6.62-11.62,0-21.06-3.24-28.31-9.72-9.27-8.15-13.91-20.55-13.91-37.19v-64.34h18.77v74.22c0,13.07,2.54,21.95,7.62,26.64,5.08,4.69,11.42,7.04,19.02,7.04s14.41-1.98,19.77-5.95c5.36-3.96,9.35-9.19,11.98-15.67,2.62-6.48,3.94-13.51,3.94-21.11v-65.17Z"/>
      <path class="cls-1" d="M550.98,653.26c5.47,2.96,9.52,6.76,12.15,11.39,2.62,4.64,3.94,9.36,3.94,14.16s-1.31,9.52-3.94,14.16c-2.63,4.64-6.65,8.46-12.06,11.48-5.42,3.02-12.15,4.52-20.19,4.52h-29.32v50.1h-18.93v-110.24h48.25c7.93,0,14.63,1.48,20.11,4.44ZM536.32,702.1c3.52-2.35,6.37-5.58,8.54-9.72,2.18-4.13,3.27-8.71,3.27-13.74s-1.09-9.41-3.27-13.49c-2.18-4.08-5.03-7.26-8.54-9.55-3.52-2.29-7.18-3.43-10.97-3.43h-23.79v53.45h23.79c3.8,0,7.46-1.17,10.97-3.52Z"/>
      <path class="cls-1" d="M668.34,655.44c8.54,5.08,15.33,11.92,20.36,20.52,5.03,8.6,7.54,17.93,7.54,27.98s-2.51,19.38-7.54,27.98c-5.03,8.6-11.81,15.44-20.36,20.52-8.54,5.08-17.84,7.62-27.9,7.62s-19.35-2.51-27.9-7.54c-8.54-5.03-15.33-11.84-20.36-20.44-5.03-8.6-7.54-17.98-7.54-28.15s2.51-19.55,7.54-28.15c5.03-8.6,11.81-15.41,20.36-20.44,8.54-5.03,17.84-7.54,27.9-7.54s19.35,2.54,27.9,7.62ZM671.94,734.02c3.02-6.76,4.52-16.78,4.52-30.07s-1.51-23.31-4.52-30.07c-3.02-6.76-7.26-12.26-12.73-16.5-5.36-4.02-11.62-6.03-18.77-6.03s-13.52,2.01-18.76,6.03c-5.59,4.25-9.86,9.75-12.82,16.5-2.96,6.76-4.44,16.78-4.44,30.07s1.48,23.32,4.44,30.07c2.96,6.76,7.23,12.26,12.82,16.5,5.36,4.13,11.61,6.2,18.76,6.2s13.29-2.06,18.77-6.2c5.47-4.24,9.72-9.74,12.73-16.5Z"/>
      <path class="cls-1" d="M834.29,648.82h18.93v110.24h-18.93v-53.28h-46.74v53.28h-18.93v-110.24h18.93v53.61h46.74v-53.61Z"/>
      <path class="cls-1" d="M942.68,648.82v64.34c0,16.75-4.64,29.15-13.91,37.19-7.26,6.48-16.64,9.72-28.15,9.72-5.81,0-11.14-1.14-16-3.43-4.86-2.29-8.8-5.72-11.81-10.3l3.18-1.84c2.46,4.02,5.58,7.07,9.38,9.13,3.8,2.07,7.76,3.1,11.9,3.1,7.6,0,13.93-2.35,19.02-7.04,5.08-4.69,7.62-13.57,7.62-26.64v-74.22h18.76Z"/>
    </g>
    <g>
      <path class="cls-1" d="M516.42,356.55v11.1h62.14v-11.1h-62.14ZM467.04,179.03h-62.69v365.05h62.69v-176.42h37.78v-11.1h-37.78v-177.53ZM621.81,179.03v177.53h-31.66v11.1h31.66v176.42h62.69V179.03h-62.69Z"/>
      <path class="cls-1" d="M578.56,235.85v213.04c0,55.48-15.35,96.53-46.05,123.16-24.05,21.45-55.11,32.18-93.2,32.18-19.23,0-36.89-3.79-52.97-11.38-16.1-7.57-29.13-18.95-39.12-34.12l10.54-6.1c8.13,13.31,18.49,23.39,31.07,30.23,12.57,6.84,25.7,10.26,39.38,10.26,25.15,0,46.13-7.77,62.97-23.3,16.83-15.54,25.25-44.94,25.25-88.22v-245.76h62.14Z"/>
      <path class="cls-1" d="M516.42,235.85v245.76c0,43.28-8.42,72.68-25.25,88.22-16.84,15.53-37.82,23.3-62.97,23.3-13.68,0-26.81-3.42-39.38-10.26-12.58-6.84-22.94-16.92-31.07-30.23l-10.54,6.1c9.98,15.17,23.02,26.55,39.12,34.12,16.08,7.58,33.75,11.38,52.97,11.38,38.1,0,69.15-10.73,93.2-32.18,30.7-26.63,46.05-67.68,46.05-123.16v-213.04h-62.14Z"/>
      <g>
        <circle class="cls-1" cx="535.28" cy="216.71" r="11.1"/>
        <circle class="cls-1" cx="547.58" cy="190.13" r="11.1"/>
      </g>
      <circle class="cls-1" cx="563.88" cy="211.19" r="7.04"/>
    </g>
  </g>
  <g>
    <path class="cls-1" d="M272.1,815.95c-1.42,1.76-2.13,3.55-2.13,5.39,0,.3.04.71.11,1.23l-2.36.39c-.11-.56-.17-1.12-.17-1.68,0-1.27.29-2.47.87-3.59.58-1.12,1.36-2.09,2.33-2.92l1.35,1.18ZM278.27,815.95c-1.42,1.76-2.13,3.55-2.13,5.39,0,.3.04.71.11,1.23l-2.36.39c-.11-.56-.17-1.12-.17-1.68,0-1.27.29-2.47.87-3.59.58-1.12,1.36-2.09,2.33-2.92l1.35,1.18Z"/>
    <path class="cls-1" d="M300.44,818.19c-1.65-.45-3.25-.67-4.83-.67-2.62,0-4.71.65-6.28,1.94-1.57,1.29-2.36,2.95-2.36,4.97,0,1.42.42,2.63,1.26,3.62.84.99,1.92,1.82,3.23,2.47,1.31.66,2.99,1.38,5.05,2.16,2.24.82,4.11,1.66,5.58,2.53,1.48.86,2.72,2.03,3.73,3.51,1.01,1.48,1.51,3.38,1.51,5.7s-.52,4.16-1.57,5.86c-1.05,1.7-2.52,3.02-4.4,3.96-1.89.94-4.05,1.4-6.48,1.4-4.23,0-8.42-1.37-12.57-4.1l1.29-2.24c1.38,1.05,3.09,1.96,5.11,2.75,2.02.79,3.98,1.18,5.89,1.18,1.68,0,3.28-.33,4.8-.98,1.52-.65,2.75-1.65,3.7-2.97.95-1.33,1.43-2.93,1.43-4.8,0-1.76-.44-3.24-1.32-4.43-.88-1.2-1.98-2.16-3.31-2.89-1.33-.73-3-1.47-5.02-2.22-2.24-.82-4.1-1.62-5.55-2.38-1.46-.77-2.69-1.79-3.68-3.06-.99-1.27-1.49-2.86-1.49-4.77s.48-3.52,1.43-4.97c.95-1.44,2.28-2.56,3.98-3.37,1.7-.8,3.6-1.22,5.7-1.26,1.8,0,3.66.24,5.58.73,1.93.49,3.64,1.1,5.13,1.85l-1.07,2.13c-1.35-.64-2.84-1.18-4.49-1.63Z"/>
    <path class="cls-1" d="M332.25,850.91l1.35,1.91c-1.09.86-2.31,1.54-3.68,2.05-1.37.5-2.74.76-4.12.76-2.24,0-4.26-.5-6.03-1.52s-3.16-2.38-4.15-4.13c-.99-1.74-1.49-3.69-1.49-5.86s.52-4.03,1.57-5.81c1.05-1.78,2.47-3.19,4.26-4.24,1.8-1.05,3.76-1.57,5.89-1.57,2.54,0,4.71.75,6.51,2.25,1.8,1.5,3.1,3.52,3.93,6.06l-18.74,7.24c.71,1.57,1.8,2.84,3.28,3.82,1.48.97,3.15,1.46,5.02,1.46,2.36,0,4.49-.8,6.4-2.41ZM321.14,835.98c-1.38.82-2.47,1.94-3.25,3.34-.79,1.4-1.18,2.97-1.18,4.69,0,.79.07,1.48.22,2.08l16.16-6.34c-.71-1.5-1.7-2.7-2.97-3.62-1.27-.92-2.75-1.37-4.43-1.37s-3.16.41-4.55,1.23Z"/>
    <path class="cls-1" d="M349.98,834.24c1.8-1.05,3.59-1.59,5.39-1.63l-.11,2.58c-1.65,0-3.16.36-4.55,1.09-1.38.73-2.48,1.74-3.28,3.03-.81,1.29-1.21,2.7-1.21,4.24v11.62h-2.64v-21.94h2.3l.23,5.22c.79-1.76,2.08-3.16,3.87-4.21Z"/>
    <path class="cls-1" d="M381.69,833.23l-10.89,22.78h-.34l-11.11-22.78h3.09l8.31,18.07,8.02-18.07h2.92Z"/>
    <path class="cls-1" d="M388.28,823.83c.39-.36.85-.53,1.38-.53s.97.18,1.35.53c.37.36.56.79.56,1.32,0,.56-.19,1.02-.56,1.38-.37.36-.82.53-1.35.53s-.98-.19-1.38-.56c-.39-.37-.59-.82-.59-1.35s.2-.96.59-1.32ZM390.89,833.23v21.94h-2.64v-21.94h2.64Z"/>
    <path class="cls-1" d="M414.38,854.95c-1.29.45-2.61.67-3.96.67-2.21,0-4.2-.5-5.98-1.49-1.78-.99-3.17-2.36-4.18-4.1-1.01-1.74-1.52-3.69-1.52-5.86s.51-4.12,1.54-5.86c1.03-1.74,2.42-3.11,4.18-4.1,1.76-.99,3.67-1.49,5.72-1.49,3.03,0,5.59.86,7.69,2.58l-1.4,1.8c-1.87-1.46-3.91-2.19-6.12-2.19-1.65,0-3.15.41-4.52,1.23-1.37.82-2.45,1.95-3.25,3.37-.8,1.42-1.21,2.97-1.21,4.66s.4,3.23,1.21,4.63c.8,1.4,1.91,2.52,3.31,3.34,1.4.82,2.96,1.23,4.69,1.23,2.09,0,4.02-.65,5.78-1.96l1.46,1.63c-1.01.82-2.16,1.46-3.45,1.91Z"/>
    <path class="cls-1" d="M425.21,823.83c.39-.36.85-.53,1.37-.53s.97.18,1.35.53c.37.36.56.79.56,1.32,0,.56-.19,1.02-.56,1.38-.37.36-.82.53-1.35.53s-.98-.19-1.37-.56c-.39-.37-.59-.82-.59-1.35s.2-.96.59-1.32ZM427.82,833.23v21.94h-2.64v-21.94h2.64Z"/>
    <path class="cls-1" d="M437.21,838.25c1.03-1.78,2.44-3.18,4.24-4.21,1.8-1.03,3.78-1.54,5.95-1.54s4.15.51,5.95,1.54c1.8,1.03,3.2,2.43,4.21,4.21,1.01,1.78,1.52,3.71,1.52,5.81s-.51,4.08-1.54,5.84c-1.03,1.76-2.43,3.15-4.21,4.18-1.78,1.03-3.77,1.54-5.98,1.54s-4.2-.5-5.98-1.49-3.17-2.37-4.18-4.12c-1.01-1.76-1.51-3.74-1.51-5.95s.51-4.03,1.54-5.81ZM439.51,848.77c.8,1.42,1.9,2.55,3.28,3.37,1.38.82,2.9,1.23,4.55,1.23s3.16-.41,4.55-1.23c1.38-.82,2.48-1.94,3.28-3.37.8-1.42,1.21-2.97,1.21-4.66s-.4-3.25-1.21-4.69c-.8-1.44-1.9-2.57-3.28-3.4-1.39-.82-2.9-1.23-4.55-1.23s-3.22.44-4.6,1.32c-1.38.88-2.47,2.03-3.25,3.45-.79,1.42-1.18,2.94-1.18,4.55s.4,3.24,1.21,4.66Z"/>
    <path class="cls-1" d="M467.96,854.89c-1.33-.49-2.4-1.23-3.23-2.24l1.23-1.74c.75.79,1.65,1.41,2.69,1.88,1.05.47,2.13.7,3.25.7,1.42,0,2.62-.33,3.59-.98.97-.65,1.46-1.67,1.46-3.06,0-.97-.26-1.75-.79-2.33-.52-.58-1.12-1.01-1.8-1.29s-1.76-.66-3.25-1.15c-1.76-.6-3.11-1.36-4.07-2.27s-1.43-2.14-1.43-3.68c0-1.8.63-3.25,1.88-4.35,1.25-1.1,2.85-1.66,4.8-1.66,2.69,0,4.88.82,6.57,2.47l-1.18,1.85c-.56-.75-1.3-1.29-2.22-1.63-.92-.34-1.84-.52-2.78-.56-1.12,0-2.14.31-3.06.93-.92.62-1.37,1.49-1.37,2.61s.41,2.03,1.23,2.61c.82.58,2.08,1.17,3.76,1.77,2.06.67,3.63,1.43,4.71,2.27,1.08.84,1.63,2.12,1.63,3.84,0,2.02-.65,3.65-1.94,4.88-1.29,1.23-3.15,1.85-5.58,1.85-1.42,0-2.8-.24-4.12-.73Z"/>
    <path class="cls-1" d="M522.96,834.07c1.7,1.01,3.05,2.4,4.04,4.18.99,1.78,1.49,3.75,1.49,5.92s-.5,4.13-1.52,5.89c-1.01,1.76-2.4,3.12-4.18,4.1-1.78.97-3.73,1.46-5.86,1.46-1.95,0-3.77-.47-5.47-1.4-1.7-.93-3.04-2.17-4.01-3.7v15.21h-2.64v-32.66h2.36l.17,4.88c1.05-1.65,2.46-2.96,4.24-3.93,1.78-.97,3.69-1.46,5.75-1.46s3.94.5,5.64,1.51ZM521.13,852.2c1.42-.82,2.55-1.94,3.4-3.37.84-1.42,1.26-2.97,1.26-4.66s-.4-3.29-1.21-4.71c-.8-1.42-1.91-2.54-3.31-3.37-1.4-.82-2.95-1.24-4.63-1.24s-3.1.38-4.46,1.12c-1.37.75-2.47,1.77-3.31,3.06-.84,1.29-1.32,2.72-1.43,4.29v1.8c.11,1.53.59,2.94,1.43,4.21.84,1.27,1.93,2.27,3.25,3,1.33.73,2.78,1.09,4.35,1.09,1.68,0,3.23-.41,4.66-1.23Z"/>
    <path class="cls-1" d="M557.72,833.23v21.94h-2.64v-4.66c-.86,1.42-2.17,2.63-3.93,3.62-1.76.99-3.67,1.49-5.72,1.49s-3.99-.48-5.7-1.43c-1.7-.95-3.05-2.3-4.04-4.04-.99-1.74-1.49-3.73-1.49-5.98,0-2.39.51-4.46,1.54-6.2,1.03-1.74,2.45-3.08,4.26-4.01s3.86-1.4,6.14-1.4c1.8,0,3.52.5,5.16,1.51,1.65,1.01,2.9,2.32,3.76,3.93l.28-4.77h2.36ZM552.28,851.07c1.72-1.53,2.66-3.5,2.81-5.89v-3.14c-.45-2.06-1.53-3.78-3.25-5.16-1.72-1.38-3.69-2.08-5.89-2.08-1.68,0-3.22.38-4.6,1.15-1.38.77-2.48,1.85-3.28,3.25-.8,1.4-1.21,3.02-1.21,4.85,0,1.68.41,3.24,1.23,4.66.82,1.42,1.94,2.55,3.34,3.4,1.4.84,2.93,1.26,4.57,1.26,2.47,0,4.56-.77,6.28-2.3Z"/>
    <path class="cls-1" d="M574.1,834.24c1.8-1.05,3.59-1.59,5.39-1.63l-.11,2.58c-1.65,0-3.16.36-4.55,1.09-1.39.73-2.48,1.74-3.28,3.03-.8,1.29-1.21,2.7-1.21,4.24v11.62h-2.64v-21.94h2.3l.22,5.22c.79-1.76,2.08-3.16,3.87-4.21Z"/>
    <path class="cls-1" d="M608,833.23v21.94h-2.64v-4.66c-.86,1.42-2.17,2.63-3.93,3.62-1.76.99-3.67,1.49-5.72,1.49s-3.99-.48-5.7-1.43c-1.7-.95-3.05-2.3-4.04-4.04-.99-1.74-1.49-3.73-1.49-5.98,0-2.39.51-4.46,1.54-6.2,1.03-1.74,2.45-3.08,4.26-4.01s3.86-1.4,6.14-1.4c1.8,0,3.52.5,5.16,1.51,1.65,1.01,2.9,2.32,3.76,3.93l.28-4.77h2.36ZM602.56,851.07c1.72-1.53,2.66-3.5,2.81-5.89v-3.14c-.45-2.06-1.53-3.78-3.25-5.16-1.72-1.38-3.69-2.08-5.89-2.08-1.68,0-3.22.38-4.6,1.15-1.38.77-2.48,1.85-3.28,3.25-.8,1.4-1.21,3.02-1.21,4.85,0,1.68.41,3.24,1.23,4.66.82,1.42,1.94,2.55,3.34,3.4,1.4.84,2.93,1.26,4.57,1.26,2.47,0,4.56-.77,6.28-2.3Z"/>
    <path class="cls-1" d="M651.21,850.91l1.35,1.91c-1.09.86-2.31,1.54-3.68,2.05-1.37.5-2.74.76-4.12.76-2.25,0-4.26-.5-6.03-1.52-1.78-1.01-3.16-2.38-4.15-4.13-.99-1.74-1.49-3.69-1.49-5.86s.52-4.03,1.57-5.81c1.05-1.78,2.47-3.19,4.26-4.24,1.8-1.05,3.76-1.57,5.89-1.57,2.54,0,4.71.75,6.51,2.25,1.8,1.5,3.1,3.52,3.93,6.06l-18.74,7.24c.71,1.57,1.8,2.84,3.28,3.82,1.48.97,3.15,1.46,5.02,1.46,2.36,0,4.49-.8,6.4-2.41ZM640.09,835.98c-1.38.82-2.47,1.94-3.25,3.34-.79,1.4-1.18,2.97-1.18,4.69,0,.79.07,1.48.23,2.08l16.16-6.34c-.71-1.5-1.7-2.7-2.97-3.62-1.27-.92-2.75-1.37-4.43-1.37s-3.16.41-4.55,1.23Z"/>
    <path class="cls-1" d="M680.95,833.23l-10.89,22.78h-.34l-11.11-22.78h3.09l8.3,18.07,8.02-18.07h2.92Z"/>
    <path class="cls-1" d="M703.23,850.91l1.35,1.91c-1.09.86-2.31,1.54-3.68,2.05-1.37.5-2.74.76-4.12.76-2.25,0-4.26-.5-6.03-1.52-1.78-1.01-3.16-2.38-4.15-4.13-.99-1.74-1.49-3.69-1.49-5.86s.52-4.03,1.57-5.81c1.05-1.78,2.47-3.19,4.26-4.24,1.8-1.05,3.76-1.57,5.89-1.57,2.54,0,4.71.75,6.51,2.25,1.8,1.5,3.1,3.52,3.93,6.06l-18.74,7.24c.71,1.57,1.8,2.84,3.28,3.82,1.48.97,3.15,1.46,5.02,1.46,2.36,0,4.49-.8,6.4-2.41ZM692.11,835.98c-1.38.82-2.47,1.94-3.25,3.34-.79,1.4-1.18,2.97-1.18,4.69,0,.79.07,1.48.23,2.08l16.16-6.34c-.71-1.5-1.7-2.7-2.97-3.62-1.27-.92-2.75-1.37-4.43-1.37s-3.16.41-4.55,1.23Z"/>
    <path class="cls-1" d="M731.28,834.44c1.27,1.22,1.94,2.8,2.02,4.74v15.99h-2.69v-15.26c-.08-1.46-.54-2.65-1.4-3.56-.86-.92-2.09-1.39-3.7-1.43-1.5,0-2.87.36-4.12,1.07-1.25.71-2.26,1.71-3.03,3-.77,1.29-1.15,2.76-1.15,4.4v11.78h-2.64v-21.94h2.3l.22,4.88c.71-1.68,1.92-3.02,3.62-4.01,1.7-.99,3.58-1.49,5.64-1.49s3.67.61,4.94,1.82Z"/>
    <path class="cls-1" d="M748.17,823.58v9.93h6.79v2.13h-6.79v19.53h-2.69v-19.53h-4.66v-2.13h4.66v-9.93h2.69Z"/>
    <path class="cls-1" d="M760.94,838.25c1.03-1.78,2.44-3.18,4.24-4.21,1.8-1.03,3.78-1.54,5.95-1.54s4.15.51,5.95,1.54c1.8,1.03,3.2,2.43,4.21,4.21,1.01,1.78,1.52,3.71,1.52,5.81s-.51,4.08-1.54,5.84c-1.03,1.76-2.43,3.15-4.21,4.18-1.78,1.03-3.77,1.54-5.98,1.54s-4.2-.5-5.98-1.49-3.17-2.37-4.18-4.12c-1.01-1.76-1.51-3.74-1.51-5.95s.51-4.03,1.54-5.81ZM763.24,848.77c.8,1.42,1.9,2.55,3.28,3.37,1.38.82,2.9,1.23,4.55,1.23s3.16-.41,4.55-1.23c1.38-.82,2.48-1.94,3.28-3.37.8-1.42,1.21-2.97,1.21-4.66s-.4-3.25-1.21-4.69c-.8-1.44-1.9-2.57-3.28-3.4-1.39-.82-2.9-1.23-4.55-1.23s-3.22.44-4.6,1.32c-1.38.88-2.47,2.03-3.25,3.45s-1.18,2.94-1.18,4.55.4,3.24,1.21,4.66Z"/>
    <path class="cls-1" d="M791.69,854.89c-1.33-.49-2.4-1.23-3.23-2.24l1.23-1.74c.75.79,1.65,1.41,2.69,1.88,1.05.47,2.13.7,3.25.7,1.42,0,2.62-.33,3.59-.98.97-.65,1.46-1.67,1.46-3.06,0-.97-.26-1.75-.79-2.33-.52-.58-1.12-1.01-1.8-1.29s-1.76-.66-3.25-1.15c-1.76-.6-3.11-1.36-4.07-2.27s-1.43-2.14-1.43-3.68c0-1.8.63-3.25,1.88-4.35,1.25-1.1,2.85-1.66,4.8-1.66,2.69,0,4.88.82,6.57,2.47l-1.18,1.85c-.56-.75-1.3-1.29-2.22-1.63-.92-.34-1.84-.52-2.78-.56-1.12,0-2.14.31-3.06.93-.92.62-1.37,1.49-1.37,2.61s.41,2.03,1.23,2.61c.82.58,2.08,1.17,3.76,1.77,2.06.67,3.63,1.43,4.71,2.27,1.08.84,1.63,2.12,1.63,3.84,0,2.02-.65,3.65-1.94,4.88-1.29,1.23-3.15,1.85-5.58,1.85-1.42,0-2.8-.24-4.12-.73Z"/>
    <path class="cls-1" d="M809.06,822.12c.67-.64,1.2-1.41,1.57-2.33.37-.92.56-1.88.56-2.89,0-.48-.06-.97-.17-1.46l2.41-.39c.11.49.17.97.17,1.46,0,1.27-.3,2.52-.9,3.73-.6,1.22-1.38,2.22-2.36,3l-1.29-1.12ZM814.28,822.12c.67-.64,1.2-1.41,1.57-2.33.37-.92.56-1.88.56-2.89,0-.48-.06-.97-.17-1.46l2.41-.39c.11.49.17.97.17,1.46,0,1.27-.3,2.52-.9,3.73-.6,1.22-1.38,2.22-2.36,3l-1.29-1.12Z"/>
  </g>
</svg>